<svg xmlns="http://www.w3.org/2000/svg" version="1.1" xmlns:xlink="http://www.w3.org/1999/xlink" xmlns:svgjs="http://svgjs.dev/svgjs" viewBox="0 0 16.453085945251225 4.706897886357149"><g transform="matrix(1,0,0,1,5.838145031931217,1.3741926931785744)"><rect width="16.453085945251225" height="16.453085945251225" x="-5.838145031931217" y="-7.247286722625613" fill="#343432"></rect><g><path d=" M 0.033 0.5294999999999997 Q 0.033 0.4319999999999997 0.06975 0.3382499999999997 Q 0.1065 0.24449999999999972 0.177 0.1679999999999997 Q 0.2475 0.09149999999999969 0.34875 0.045749999999999735 Q 0.45 -2.220446049250313e-16 0.5775 -2.220446049250313e-16 Q 0.7305 -2.220446049250313e-16 0.8445 0.06374999999999975 Q 0.9585 0.12749999999999972 1.014 0.2324999999999997 L 0.7905 0.39149999999999974 Q 0.771 0.33899999999999975 0.7342500000000001 0.31049999999999967 Q 0.6975 0.2819999999999997 0.65475 0.2707499999999997 Q 0.612 0.25949999999999973 0.5715 0.25949999999999973 Q 0.5085000000000001 0.25949999999999973 0.46275 0.28424999999999967 Q 0.417 0.3089999999999997 0.38775 0.3494999999999997 Q 0.3585 0.3899999999999997 0.34425 0.43949999999999967 Q 0.33 0.48899999999999977 0.33 0.5384999999999998 Q 0.33 0.5939999999999996 0.34650000000000003 0.6449999999999998 Q 0.363 0.6959999999999997 0.3945 0.7357499999999997 Q 0.426 0.7754999999999997 0.47175 0.7979999999999997 Q 0.5175 0.8204999999999998 0.5745 0.8204999999999998 Q 0.615 0.8204999999999998 0.657 0.8077499999999997 Q 0.6990000000000001 0.7949999999999997 0.7335 0.7664999999999997 Q 0.768 0.7379999999999998 0.786 0.6899999999999997 L 1.0245 0.8324999999999997 Q 0.993 0.9104999999999998 0.9195 0.9659999999999997 Q 0.846 1.0214999999999996 0.753 1.0507499999999996 Q 0.66 1.0799999999999996 0.5685 1.0799999999999996 Q 0.45 1.0799999999999996 0.35175 1.0327499999999998 Q 0.2535 0.9854999999999997 0.18225 0.9067499999999997 Q 0.111 0.8279999999999997 0.07200000000000001 0.7297499999999997 Q 0.033 0.6314999999999997 0.033 0.5294999999999997 M 2.084968505859375 0.005999999999999783 L 2.084968505859375 1.0709999999999997 L 1.7924685058593752 1.0709999999999997 L 1.7924685058593752 0.6539999999999997 L 1.435468505859375 0.6539999999999997 L 1.435468505859375 1.0709999999999997 L 1.142968505859375 1.0709999999999997 L 1.142968505859375 0.005999999999999783 L 1.435468505859375 0.005999999999999783 L 1.435468505859375 0.3989999999999997 L 1.7924685058593752 0.3989999999999997 L 1.7924685058593752 0.005999999999999783 L 2.084968505859375 0.005999999999999783 M 2.528968505859375 0.005999999999999783 L 2.855968505859375 0.005999999999999783 L 3.194968505859375 1.0709999999999997 L 2.8979685058593754 1.0709999999999997 L 2.833468505859375 0.8624999999999997 L 2.549968505859375 0.8624999999999997 L 2.4869685058593753 1.0709999999999997 L 2.188468505859375 1.0709999999999997 L 2.528968505859375 0.005999999999999783 M 2.786968505859375 0.6674999999999998 L 2.692468505859375 0.29249999999999976 L 2.5934685058593754 0.6674999999999998 L 2.786968505859375 0.6674999999999998 M 4.030453125 0.2609999999999997 L 3.724453125 0.2609999999999997 L 3.724453125 1.0709999999999997 L 3.4319531250000006 1.0709999999999997 L 3.4319531250000006 0.2609999999999997 L 3.1244531250000005 0.2609999999999997 L 3.1244531250000005 0.005999999999999783 L 4.030453125 0.005999999999999783 L 4.030453125 0.2609999999999997 M 4.060506591796876 0.7844999999999998 L 4.060506591796876 0.5294999999999997 L 4.530006591796876 0.5294999999999997 L 4.530006591796876 0.7844999999999998 L 4.060506591796876 0.7844999999999998 M 5.6175439453125 0.7979999999999997 Q 5.6175439453125 0.8939999999999997 5.5657939453125005 0.9539999999999997 Q 5.5140439453125 1.0139999999999998 5.427043945312501 1.0424999999999998 Q 5.3400439453125 1.0709999999999997 5.2350439453125 1.0709999999999997 L 4.7115439453125 1.0709999999999997 L 4.7115439453125 0.005999999999999783 L 5.3295439453125 0.005999999999999783 Q 5.404543945312501 0.005999999999999783 5.4592939453125 0.045749999999999735 Q 5.5140439453125 0.08549999999999969 5.5432939453125005 0.14849999999999974 Q 5.5725439453125 0.2114999999999997 5.5725439453125 0.2789999999999997 Q 5.5725439453125 0.3524999999999997 5.5342939453125 0.42149999999999976 Q 5.4960439453125005 0.4904999999999997 5.4195439453125 0.5249999999999997 Q 5.5110439453125 0.5519999999999997 5.5642939453125 0.6194999999999997 Q 5.6175439453125 0.6869999999999997 5.6175439453125 0.7979999999999997 M 5.3205439453125 0.7379999999999998 Q 5.3205439453125 0.7109999999999997 5.310793945312501 0.6907499999999998 Q 5.3010439453125 0.6704999999999997 5.2845439453125005 0.6584999999999996 Q 5.2680439453125 0.6464999999999997 5.2455439453125 0.6464999999999997 L 5.0040439453125005 0.6464999999999997 L 5.0040439453125005 0.8249999999999997 L 5.2350439453125 0.8249999999999997 Q 5.2590439453125 0.8249999999999997 5.2785439453125 0.8144999999999998 Q 5.2980439453125 0.8039999999999997 5.3092939453125005 0.7844999999999998 Q 5.3205439453125 0.7649999999999997 5.3205439453125 0.7379999999999998 M 5.0040439453125005 0.25499999999999967 L 5.0040439453125005 0.41849999999999976 L 5.2035439453125 0.41849999999999976 Q 5.2230439453125 0.41849999999999976 5.2410439453125 0.4117499999999997 Q 5.2590439453125 0.4049999999999997 5.2710439453125 0.3869999999999997 Q 5.2830439453125 0.36899999999999966 5.2830439453125 0.33599999999999974 Q 5.2830439453125 0.3059999999999997 5.2732939453125 0.28874999999999973 Q 5.263543945312501 0.27149999999999974 5.2477939453125 0.26324999999999976 Q 5.2320439453125 0.25499999999999967 5.2125439453125 0.25499999999999967 L 5.0040439453125005 0.25499999999999967 M 6.226547607421875 1.0799999999999996 Q 6.099047607421875 1.0799999999999996 6.007547607421875 1.0379999999999998 Q 5.916047607421875 0.9959999999999998 5.858297607421875 0.9224999999999998 Q 5.8005476074218745 0.8489999999999998 5.773547607421875 0.7537499999999997 Q 5.746547607421875 0.6584999999999996 5.746547607421875 0.5534999999999998 L 5.746547607421875 0.005999999999999783 L 6.039047607421875 0.005999999999999783 L 6.039047607421875 0.5534999999999998 Q 6.039047607421875 0.6059999999999997 6.049547607421875 0.6539999999999997 Q 6.0600476074218745 0.7019999999999997 6.0825476074218745 0.7394999999999997 Q 6.1050476074218745 0.7769999999999997 6.140297607421875 0.7987499999999997 Q 6.1755476074218745 0.8204999999999998 6.226547607421875 0.8204999999999998 Q 6.279047607421875 0.8204999999999998 6.315047607421874 0.7987499999999997 Q 6.351047607421875 0.7769999999999997 6.372797607421875 0.7387499999999998 Q 6.394547607421875 0.7004999999999997 6.405047607421875 0.6524999999999997 Q 6.415547607421875 0.6044999999999997 6.415547607421875 0.5534999999999998 L 6.415547607421875 0.005999999999999783 L 6.708047607421875 0.005999999999999783 L 6.708047607421875 0.5534999999999998 Q 6.708047607421875 0.6644999999999996 6.678797607421875 0.7604999999999997 Q 6.649547607421875 0.8564999999999997 6.591047607421875 0.9284999999999997 Q 6.532547607421875 1.0004999999999997 6.441797607421875 1.0402499999999997 Q 6.351047607421875 1.0799999999999996 6.226547607421875 1.0799999999999996 M 6.89101904296875 1.0709999999999997 L 6.89101904296875 0.005999999999999783 L 7.300519042968751 0.005999999999999783 Q 7.47751904296875 0.005999999999999783 7.59676904296875 0.07724999999999971 Q 7.7160190429687505 0.14849999999999974 7.77676904296875 0.26924999999999977 Q 7.837519042968751 0.3899999999999997 7.837519042968751 0.5369999999999997 Q 7.837519042968751 0.6989999999999997 7.770769042968751 0.8189999999999997 Q 7.70401904296875 0.9389999999999997 7.583269042968751 1.0049999999999997 Q 7.462519042968751 1.0709999999999997 7.300519042968751 1.0709999999999997 L 6.89101904296875 1.0709999999999997 M 7.54051904296875 0.5369999999999997 Q 7.54051904296875 0.4544999999999997 7.512019042968751 0.39224999999999977 Q 7.483519042968751 0.32999999999999974 7.42951904296875 0.29549999999999976 Q 7.375519042968751 0.2609999999999997 7.300519042968751 0.2609999999999997 L 7.183519042968751 0.2609999999999997 L 7.183519042968751 0.8159999999999997 L 7.300519042968751 0.8159999999999997 Q 7.37701904296875 0.8159999999999997 7.43026904296875 0.7799999999999998 Q 7.483519042968751 0.7439999999999998 7.512019042968751 0.6802499999999998 Q 7.54051904296875 0.6164999999999997 7.54051904296875 0.5369999999999997 M 7.980024169921876 1.0709999999999997 L 7.980024169921876 0.005999999999999783 L 8.389524169921875 0.005999999999999783 Q 8.566524169921877 0.005999999999999783 8.685774169921876 0.07724999999999971 Q 8.805024169921875 0.14849999999999974 8.865774169921876 0.26924999999999977 Q 8.926524169921876 0.3899999999999997 8.926524169921876 0.5369999999999997 Q 8.926524169921876 0.6989999999999997 8.859774169921875 0.8189999999999997 Q 8.793024169921877 0.9389999999999997 8.672274169921875 1.0049999999999997 Q 8.551524169921876 1.0709999999999997 8.389524169921875 1.0709999999999997 L 7.980024169921876 1.0709999999999997 M 8.629524169921876 0.5369999999999997 Q 8.629524169921876 0.4544999999999997 8.601024169921876 0.39224999999999977 Q 8.572524169921875 0.32999999999999974 8.518524169921877 0.29549999999999976 Q 8.464524169921877 0.2609999999999997 8.389524169921875 0.2609999999999997 L 8.272524169921876 0.2609999999999997 L 8.272524169921876 0.8159999999999997 L 8.389524169921875 0.8159999999999997 Q 8.466024169921877 0.8159999999999997 8.519274169921877 0.7799999999999998 Q 8.572524169921875 0.7439999999999998 8.601024169921876 0.6802499999999998 Q 8.629524169921876 0.6164999999999997 8.629524169921876 0.5369999999999997 M 9.219019775390626 0.005999999999999783 L 9.409519775390626 0.4409999999999997 L 9.604519775390626 0.005999999999999783 L 9.922519775390626 0.005999999999999783 L 9.555019775390626 0.7184999999999997 L 9.555019775390626 1.0709999999999997 L 9.264019775390626 1.0709999999999997 L 9.264019775390626 0.7154999999999998 L 8.902519775390626 0.005999999999999783 L 9.219019775390626 0.005999999999999783" fill="#f9f9f9" fill-rule="nonzero"></path></g><g><path d=" M 0.5385 1.9585125 L 0.5385 1.5250125 L 0.34575 1.8617625000000002 L 0.31275000000000003 1.8617625000000002 L 0.11925000000000001 1.5250125 L 0.11925000000000001 1.9585125 L 0.06675 1.9585125 L 0.06675 1.4260125000000001 L 0.12075 1.4260125000000001 L 0.3285 1.7905125000000002 L 0.5377500000000001 1.4260125000000001 L 0.591 1.4260125000000001 L 0.591 1.9585125 L 0.5385 1.9585125 M 1.0897606201171874 1.9120125000000001 L 1.0897606201171874 1.9585125 L 0.7320106201171875 1.9585125 L 0.7320106201171875 1.4260125000000001 L 1.0830106201171876 1.4260125000000001 L 1.0830106201171876 1.4725125000000001 L 0.7845106201171875 1.4725125000000001 L 0.7845106201171875 1.6645125 L 1.0447606201171875 1.6645125 L 1.0447606201171875 1.7087625000000002 L 0.7845106201171875 1.7087625000000002 L 0.7845106201171875 1.9120125000000001 L 1.0897606201171874 1.9120125000000001 M 1.5540172119140627 1.9120125000000001 L 1.5540172119140627 1.9585125 L 1.1962672119140627 1.9585125 L 1.1962672119140627 1.4260125000000001 L 1.5472672119140627 1.4260125000000001 L 1.5472672119140627 1.4725125000000001 L 1.2487672119140627 1.4725125000000001 L 1.2487672119140627 1.6645125 L 1.5090172119140626 1.6645125 L 1.5090172119140626 1.7087625000000002 L 1.2487672119140627 1.7087625000000002 L 1.2487672119140627 1.9120125000000001 L 1.5540172119140627 1.9120125000000001 M 2.038523803710938 1.4725125000000001 L 1.8487738037109378 1.4725125000000001 L 1.8487738037109378 1.9585125 L 1.7962738037109376 1.9585125 L 1.7962738037109376 1.4725125000000001 L 1.6065238037109377 1.4725125000000001 L 1.6065238037109377 1.4260125000000001 L 2.038523803710938 1.4260125000000001 L 2.038523803710938 1.4725125000000001 M 2.355022705078125 1.5227625 L 2.355022705078125 1.9585125 L 2.302522705078125 1.9585125 L 2.302522705078125 1.4260125000000001 L 2.3460227050781253 1.4260125000000001 L 2.695522705078125 1.8700125 L 2.695522705078125 1.4267625000000002 L 2.748022705078125 1.4267625000000002 L 2.748022705078125 1.9585125 L 2.6992727050781253 1.9585125 L 2.355022705078125 1.5227625 M 3.246752197265625 1.9120125000000001 L 3.246752197265625 1.9585125 L 2.889002197265625 1.9585125 L 2.889002197265625 1.4260125000000001 L 3.2400021972656248 1.4260125000000001 L 3.2400021972656248 1.4725125000000001 L 2.941502197265625 1.4725125000000001 L 2.941502197265625 1.6645125 L 3.201752197265625 1.6645125 L 3.201752197265625 1.7087625000000002 L 2.941502197265625 1.7087625000000002 L 2.941502197265625 1.9120125000000001 L 3.246752197265625 1.9120125000000001 M 3.5535087890624997 1.4297625 L 3.6030087890624998 1.4297625 L 3.6780087890625 1.6187625 L 3.7537587890624997 1.4297625 L 3.8040087890625 1.4297625 L 3.7110087890625 1.6570125 L 3.8130087890624997 1.8977625 L 4.0057587890625 1.4260125000000001 L 4.062758789062499 1.4260125000000001 L 3.8370087890624998 1.9585125 L 3.7905087890624998 1.9585125 L 3.6787587890625 1.6952625000000001 L 3.5662587890624997 1.9585125 L 3.5205087890624998 1.9585125 L 3.2955087890624997 1.4260125000000001 L 3.3517587890624996 1.4260125000000001 L 3.5452587890625 1.8977625 L 3.6465087890624996 1.6570125 L 3.5535087890624997 1.4297625 M 4.317797973632812 1.9585125 L 4.317797973632812 1.4260125000000001 L 4.538297973632813 1.4260125000000001 Q 4.572797973632812 1.4260125000000001 4.601672973632812 1.4402625000000002 Q 4.630547973632813 1.4545125 4.6515479736328125 1.4788875000000001 Q 4.672547973632812 1.5032625000000002 4.684547973632812 1.5328875000000002 Q 4.696547973632812 1.5625125 4.696547973632812 1.5932625 Q 4.696547973632812 1.6367625000000001 4.677422973632813 1.6753875 Q 4.658297973632813 1.7140125000000002 4.623797973632812 1.7380125000000002 Q 4.589297973632813 1.7620125 4.542797973632813 1.7620125 L 4.3702979736328125 1.7620125 L 4.3702979736328125 1.9585125 L 4.317797973632812 1.9585125 M 4.3702979736328125 1.7155125 L 4.540547973632813 1.7155125 Q 4.572047973632812 1.7155125 4.595297973632812 1.6982625000000002 Q 4.618547973632812 1.6810125 4.631297973632813 1.6532625 Q 4.644047973632812 1.6255125000000001 4.644047973632812 1.5932625 Q 4.644047973632812 1.5602625 4.6290479736328125 1.5325125000000002 Q 4.614047973632813 1.5047625 4.589672973632813 1.4886375 Q 4.565297973632813 1.4725125000000001 4.5360479736328125 1.4725125000000001 L 4.3702979736328125 1.4725125000000001 L 4.3702979736328125 1.7155125 M 5.149554931640625 1.9120125000000001 L 5.149554931640625 1.9585125 L 4.791804931640625 1.9585125 L 4.791804931640625 1.4260125000000001 L 5.142804931640625 1.4260125000000001 L 5.142804931640625 1.4725125000000001 L 4.844304931640625 1.4725125000000001 L 4.844304931640625 1.6645125 L 5.104554931640625 1.6645125 L 5.104554931640625 1.7087625000000002 L 4.844304931640625 1.7087625000000002 L 4.844304931640625 1.9120125000000001 L 5.149554931640625 1.9120125000000001 M 5.460078735351563 1.9622625 Q 5.403828735351563 1.9622625 5.358078735351563 1.9397625 Q 5.312328735351563 1.9172625 5.279328735351563 1.8786375000000002 Q 5.246328735351563 1.8400125 5.228328735351563 1.7916375000000002 Q 5.210328735351563 1.7432625000000002 5.210328735351563 1.6922625 Q 5.210328735351563 1.6390125000000002 5.229078735351563 1.5906375000000001 Q 5.247828735351563 1.5422625 5.281953735351563 1.5043875 Q 5.316078735351563 1.4665125 5.361828735351563 1.4443875 Q 5.407578735351563 1.4222625 5.460828735351563 1.4222625 Q 5.517078735351563 1.4222625 5.562828735351563 1.4455125 Q 5.608578735351563 1.4687625 5.641203735351563 1.5077625000000001 Q 5.673828735351563 1.5467625 5.691828735351563 1.5947625 Q 5.709828735351563 1.6427625000000001 5.709828735351563 1.6930125 Q 5.709828735351563 1.7462625 5.691078735351563 1.7946375 Q 5.672328735351563 1.8430125000000002 5.638578735351563 1.8808875 Q 5.604828735351563 1.9187625000000001 5.559078735351563 1.9405125 Q 5.513328735351563 1.9622625 5.460078735351563 1.9622625 M 5.262828735351563 1.6922625 Q 5.262828735351563 1.7357625 5.277078735351563 1.7758875 Q 5.291328735351563 1.8160125 5.317578735351563 1.8471375 Q 5.343828735351563 1.8782625000000002 5.380203735351563 1.8966375000000002 Q 5.416578735351563 1.9150125 5.460078735351563 1.9150125 Q 5.505828735351563 1.9150125 5.542203735351563 1.8958875000000002 Q 5.578578735351563 1.8767625000000001 5.604453735351563 1.8448875 Q 5.630328735351563 1.8130125000000001 5.643828735351563 1.7732625000000002 Q 5.657328735351563 1.7335125 5.657328735351563 1.6922625 Q 5.657328735351563 1.6487625000000001 5.643078735351563 1.6090125 Q 5.628828735351563 1.5692625000000002 5.602203735351563 1.5377625000000001 Q 5.575578735351563 1.5062625 5.539578735351563 1.4882625 Q 5.503578735351563 1.4702625 5.460078735351563 1.4702625 Q 5.415078735351563 1.4702625 5.3787037353515625 1.4890125 Q 5.342328735351563 1.5077625000000001 5.316453735351563 1.5396375 Q 5.290578735351563 1.5715125 5.276703735351563 1.6112625 Q 5.262828735351563 1.6510125000000002 5.262828735351563 1.6922625 M 5.816311157226563 1.9585125 L 5.816311157226563 1.4260125000000001 L 6.0368111572265635 1.4260125000000001 Q 6.071311157226563 1.4260125000000001 6.100186157226563 1.4402625000000002 Q 6.129061157226563 1.4545125 6.150061157226563 1.4788875000000001 Q 6.171061157226563 1.5032625000000002 6.183061157226563 1.5328875000000002 Q 6.195061157226563 1.5625125 6.195061157226563 1.5932625 Q 6.195061157226563 1.6367625000000001 6.175936157226563 1.6753875 Q 6.156811157226564 1.7140125000000002 6.122311157226563 1.7380125000000002 Q 6.087811157226564 1.7620125 6.041311157226564 1.7620125 L 5.868811157226563 1.7620125 L 5.868811157226563 1.9585125 L 5.816311157226563 1.9585125 M 5.868811157226563 1.7155125 L 6.039061157226564 1.7155125 Q 6.070561157226563 1.7155125 6.093811157226563 1.6982625000000002 Q 6.117061157226563 1.6810125 6.1298111572265634 1.6532625 Q 6.142561157226563 1.6255125000000001 6.142561157226563 1.5932625 Q 6.142561157226563 1.5602625 6.127561157226563 1.5325125000000002 Q 6.112561157226564 1.5047625 6.088186157226564 1.4886375 Q 6.063811157226564 1.4725125000000001 6.034561157226563 1.4725125000000001 L 5.868811157226563 1.4725125000000001 L 5.868811157226563 1.7155125 M 6.290318115234376 1.9585125 L 6.290318115234376 1.4260125000000001 L 6.342818115234376 1.4260125000000001 L 6.342818115234376 1.9120125000000001 L 6.650318115234376 1.9120125000000001 L 6.650318115234376 1.9585125 L 6.290318115234376 1.9585125 M 7.092823974609376 1.9120125000000001 L 7.092823974609376 1.9585125 L 6.735073974609376 1.9585125 L 6.735073974609376 1.4260125000000001 L 7.086073974609376 1.4260125000000001 L 7.086073974609376 1.4725125000000001 L 6.787573974609376 1.4725125000000001 L 6.787573974609376 1.6645125 L 7.0478239746093765 1.6645125 L 7.0478239746093765 1.7087625000000002 L 6.787573974609376 1.7087625000000002 L 6.787573974609376 1.9120125000000001 L 7.092823974609376 1.9120125000000001" fill="#e9e9e5" fill-rule="nonzero"></path></g><g clip-path="url(#SvgjsClipPath1002)"><g clip-path="url(#SvgjsClipPath10003f842a45-52c7-43e9-a5dc-7be4ae0213c7)"><path d=" M -2.9934898660947247 0.8037887682312831 C -2.9932205599775825 0.561212650162579 -2.796646766911775 0.36462993388957365 -2.5540706613175046 0.36434961660076814 L -1.7765423196748982 0.36434961660076814 L -1.7765423196748982 -0.38828505212316927 C -1.7767181888550234 -0.5436819005629534 -1.9026454447628947 -0.6696136180210696 -2.0580422868742714 -0.6697949927491901 L -4.852237390875811 -0.6697949927491901 C -5.007638127865751 -0.6696191128468283 -5.133571451599473 -0.5436857891131022 -5.133747331501832 -0.38828505212316927 L -5.133747331501832 1.2479054569607029 C -5.1335714515994635 1.403306193950653 -5.007638127865727 1.5292395176843723 -4.8522373908757945 1.5294153975867206 L -4.513978652610666 1.5294153975867206 L -4.513978652610666 2.0567304114313596 C -4.513977832033988 2.117239182593702 -4.477527104747034 2.1717892413961786 -4.421623697772677 2.194943516960242 C -4.365720290798317 2.218097792524299 -4.301373672091525 2.2052963435397492 -4.258589116381211 2.16250857448236 L -3.6254859660589243 1.5294153975867206 L -2.9934898660947247 1.5294153975867206 Z" fill="#aac527" transform="matrix(1,0,0,1,0,0)" fill-rule="nonzero"></path></g><g clip-path="url(#SvgjsClipPath10003f842a45-52c7-43e9-a5dc-7be4ae0213c7)"><path d=" M -0.8245687724952013 2.478696119570886 L -0.8245687724952013 2.164583047225658 L -0.6399606452016542 2.164583047225658 C -0.5074994476831289 2.1644346559281336 -0.4001538968647331 2.057093566687075 -0.3999999999999968 1.9246323754506482 L -0.3999999999999968 0.8037887682312831 C -0.40014839131118407 0.6713220625450137 -0.5074939457972576 0.5639720464814609 -0.6399606452016746 0.5638181496029752 L -2.554070661317508 0.5638181496029752 C -2.6865334658075537 0.5639775410953475 -2.793872952640123 0.6713259509493871 -2.7940213330925174 0.8037887682312831 L -2.7940213330925174 1.9246722691572482 C -2.793872931176703 2.057131847106737 -2.6865302392669896 2.164474539016447 -2.5540706613175046 2.164622940932258 L -1.4998794644008333 2.164622940932258 L -1.0799982024311854 2.5845042029019063 C -1.0372114281334692 2.6272861229937763 -0.9728670227979821 2.6400824018139186 -0.9169670789801634 2.6169264733566977 C -0.8610671351623447 2.593770544899477 -0.8246194600929222 2.5392222705761416 -0.8246186396284587 2.4787160664241843 Z" fill="#d4d6c9" transform="matrix(1,0,0,1,0,0)" fill-rule="nonzero"></path></g></g></g><defs><clipPath id="SvgjsClipPath1002"><path d=" M -5.133747331501832 -0.6697949927491901 h 4.7337473315018315 v 3.2981024854983803 h -4.7337473315018315 Z"></path></clipPath><clipPath id="SvgjsClipPath10003f842a45-52c7-43e9-a5dc-7be4ae0213c7"><path d=" M -5.133747331501832 -0.6697949927491903 L -0.40000000000000036 -0.6697949927491903 L -0.40000000000000036 2.6283074927491903 L -5.133747331501832 2.6283074927491903 Z"></path></clipPath></defs></svg>